<svg width="12" height="13" viewBox="0 0 12 13" fill="none" xmlns="http://www.w3.org/2000/svg">
	<path d="M7.875 0.5C9.04688 0.546875 10.0078 0.945312 10.7812 1.69531C11.5547 2.49219 11.9531 3.45312 12 4.60156C11.9531 5.77344 11.5547 6.75781 10.7812 7.53125C10.0078 8.30469 9.04688 8.70312 7.875 8.72656C7.5 8.72656 7.14844 8.70312 6.82031 8.60938L6.09375 9.33594C5.97656 9.45312 5.83594 9.5 5.69531 9.5H5.25V10.4375C5.20312 10.7891 5.01562 10.9766 4.6875 11H3.75V11.9375C3.70312 12.2891 3.51562 12.4766 3.1875 12.5H0.5625C0.210938 12.4766 0.0234375 12.2891 0 11.9375V9.80469C0 9.66406 0.046875 9.52344 0.164062 9.40625L3.89062 5.67969C3.77344 5.35156 3.72656 5 3.75 4.625C3.77344 3.45312 4.17188 2.49219 4.96875 1.71875C5.71875 0.945312 6.70312 0.546875 7.875 0.5ZM7.875 8C8.8125 7.97656 9.60938 7.64844 10.2656 7.01562C10.875 6.38281 11.2031 5.58594 11.25 4.625C11.2031 3.6875 10.875 2.89062 10.2656 2.23438C9.60938 1.625 8.8125 1.29688 7.875 1.25C6.91406 1.29688 6.11719 1.625 5.48438 2.23438C4.85156 2.89062 4.52344 3.6875 4.5 4.625C4.5 5.09375 4.57031 5.51562 4.73438 5.89062L0.75 9.875V11.75H3V10.25H4.5V8.75H5.625L6.60938 7.76562C6.98438 7.92969 7.40625 8 7.875 8ZM9 2.9375C9.32812 2.98438 9.51562 3.17188 9.5625 3.5C9.51562 3.85156 9.32812 4.03906 9 4.0625C8.64844 4.03906 8.46094 3.85156 8.4375 3.5C8.46094 3.17188 8.64844 2.98438 9 2.9375Z" fill="#2096F3" />
</svg>
