<svg width="220" height="22" viewBox="0 0 220 22" fill="none" xmlns="http://www.w3.org/2000/svg">
    <line y1="10.5" x2="220" y2="10.5" stroke="#92929D" stroke-opacity="0.2" />
    <rect width="25" height="22" transform="translate(92)" fill="white" />
    <path d="M104.871 11.49C104.871 9.4 103.291 7.92 101.301 7.92C99.3311 7.92 97.7211 9.4 97.7211 11.49C97.7211 13.59 99.3311 15.07 101.301 15.07C103.281 15.07 104.871 13.59 104.871 11.49ZM99.1611 11.49C99.1611 10.07 100.031 9.18 101.301 9.18C102.561 9.18 103.431 10.07 103.431 11.49C103.431 12.91 102.561 13.82 101.301 13.82C100.031 13.82 99.1611 12.91 99.1611 11.49ZM109.613 10.19C109.613 10.82 109.263 11.23 108.483 11.23H107.313V9.18H108.483C109.263 9.18 109.613 9.57 109.613 10.19ZM105.913 8.02V15H107.313V12.28H107.973L109.513 15H111.133L109.463 12.17C110.583 11.87 111.053 11.01 111.053 10.16C111.053 8.99 110.213 8.02 108.533 8.02H105.913Z" fill="#202F42" />
</svg>
    