<svg width="12" height="13" viewBox="0 0 12 13" fill="none" xmlns="http://www.w3.org/2000/svg">
<path d="M6 6.5C5.15625 6.5 4.42969 6.19531 3.86719 5.63281C3.30469 5.07031 3 4.34375 3 3.5C3 2.65625 3.30469 1.95312 3.86719 1.36719C4.42969 0.804688 5.15625 0.523438 6 0.5C6.84375 0.523438 7.54688 0.804688 8.13281 1.36719C8.69531 1.95312 8.97656 2.65625 9 3.5C8.97656 4.34375 8.69531 5.07031 8.13281 5.63281C7.54688 6.19531 6.84375 6.5 6 6.5ZM6 1.25C5.34375 1.27344 4.82812 1.48438 4.40625 1.90625C3.98438 2.32812 3.75 2.86719 3.75 3.5C3.75 4.15625 3.98438 4.67188 4.40625 5.09375C4.82812 5.51562 5.34375 5.75 6 5.75C6.63281 5.75 7.17188 5.51562 7.59375 5.09375C8.01562 4.67188 8.22656 4.15625 8.25 3.5C8.22656 2.86719 8.01562 2.32812 7.59375 1.90625C7.17188 1.48438 6.63281 1.27344 6 1.25ZM7.19531 7.625C8.32031 7.67188 9.28125 8.07031 10.0547 8.82031C10.8047 9.59375 11.2031 10.5547 11.25 11.6797C11.25 11.9141 11.1562 12.125 11.0156 12.2656C10.8516 12.4297 10.6641 12.5 10.4297 12.5H1.57031C1.33594 12.5 1.125 12.4297 0.984375 12.2656C0.820312 12.125 0.75 11.9141 0.75 11.6797C0.773438 10.5547 1.17188 9.59375 1.94531 8.82031C2.69531 8.07031 3.65625 7.67188 4.80469 7.625H7.19531ZM10.4297 11.75C10.4766 11.75 10.5 11.7266 10.5 11.6797C10.4531 10.7422 10.1484 9.96875 9.53906 9.33594C8.90625 8.72656 8.13281 8.42188 7.19531 8.375H4.80469C3.86719 8.42188 3.07031 8.72656 2.46094 9.33594C1.85156 9.96875 1.52344 10.7422 1.5 11.6797C1.5 11.7266 1.52344 11.75 1.57031 11.75H10.4297Z" fill="#2096F3"/>
</svg>
